<?xml version="1.0" encoding="UTF-8" standalone="no"?>
<svg
   xmlns:dc="http://purl.org/dc/elements/1.1/"
   xmlns:cc="http://creativecommons.org/ns#"
   xmlns:rdf="http://www.w3.org/1999/02/22-rdf-syntax-ns#"
   xmlns:svg="http://www.w3.org/2000/svg"
   xmlns="http://www.w3.org/2000/svg"
   id="svg4682"
   preserveAspectRatio="xMidYMid meet"
   viewBox="0 0 88 88"
   height="117.33334"
   width="117.33334"
   version="1.0">
  <metadata
     id="metadata4688">
    <rdf:RDF>
      <cc:Work
         rdf:about="">
        <dc:format>image/svg+xml</dc:format>
        <dc:type
           rdf:resource="http://purl.org/dc/dcmitype/StillImage" />
        <dc:title></dc:title>
      </cc:Work>
    </rdf:RDF>
  </metadata>
  <defs
     id="defs4686" />
  <rect
     ry="0"
     rx="0"
     y="0.00025762938"
     x="0"
     height="87.999741"
     width="87.999741"
     id="rect5233"
     style="opacity:1;vector-effect:none;fill:#000000;fill-opacity:1;stroke:none;stroke-width:0.28589576;stroke-linecap:butt;stroke-linejoin:miter;stroke-miterlimit:4;stroke-dasharray:none;stroke-dashoffset:0;stroke-opacity:1;paint-order:markers stroke fill" />
  <g
     style="fill:#ffffff;stroke:none"
     id="g4680"
     transform="matrix(0.1,0,0,-0.1,0,88)">
    <path
       style="fill:#ffffff"
       id="path4668"
       d="m 133,808 c -6,-7 -13,-25 -17,-40 -3,-16 -13,-28 -22,-28 -22,0 -29,-28 -10,-49 11,-12 15,-29 12,-53 -10,-75 21,-138 66,-138 29,0 68,45 68,78 0,47 -33,51 -58,7 -10,-17 -11,-12 -12,32 0,51 0,51 38,60 30,7 37,13 37,33 0,20 -6,26 -30,30 -27,4 -30,9 -30,40 0,37 -23,52 -42,28 z" />
    <path
       style="fill:#ffffff"
       id="path4670"
       d="m 683,732 c -30,-29 -31,-30 -38,-155 -8,-133 -4,-171 18,-180 29,-11 42,12 47,85 l 5,73 45,3 c 67,5 83,24 78,94 -3,43 -10,64 -28,83 -33,35 -86,34 -127,-3 z m 87,-51 c 19,-36 13,-61 -15,-61 -31,0 -42,23 -27,56 14,29 28,31 42,5 z" />
    <path
       style="fill:#ffffff"
       id="path4672"
       d="m 287,723 c -14,-13 -7,-179 7,-199 24,-31 49,-7 62,60 15,73 24,82 24,23 0,-42 18,-77 39,-77 14,0 31,24 31,45 0,28 37,85 55,85 15,0 18,-13 19,-74 1,-36 28,-55 50,-37 20,17 21,80 2,126 -19,44 -76,64 -114,39 -21,-14 -25,-14 -41,0 -21,19 -52,21 -70,4 -11,-10 -14,-10 -18,0 -5,13 -35,17 -46,5 z" />
    <path
       style="fill:#ffffff"
       id="path4674"
       d="m 134,446 c -9,-24 4,-48 23,-44 12,2 18,12 18,28 0,29 -32,41 -41,16 z" />
    <path
       style="fill:#ffffff"
       id="path4676"
       d="m 160,311 c -5,-11 -10,-63 -10,-116 0,-78 3,-97 16,-102 8,-3 21,0 27,6 15,15 27,190 15,214 -12,23 -35,22 -48,-2 z" />
    <path
       style="fill:#ffffff"
       id="path4678"
       d="m 323,323 c -9,-3 -13,-34 -13,-103 0,-80 3,-99 16,-104 24,-9 33,1 61,65 14,32 30,59 34,59 5,0 9,-22 9,-49 0,-51 18,-78 45,-67 8,3 15,17 15,30 0,31 29,106 41,106 13,0 21,-41 17,-95 -2,-36 1,-50 14,-58 27,-18 41,5 46,73 5,69 -9,112 -45,135 -28,18 -70,13 -79,-9 -5,-12 -10,-11 -34,2 -28,16 -30,16 -52,-5 l -22,-22 -10,21 c -12,23 -24,29 -43,21 z" />
  </g>
</svg>
